<svg id="svg" version="1.1" width="526" height="526" xmlns="http://www.w3.org/2000/svg" xmlns:xlink="http://www.w3.org/1999/xlink" style="display: block;"><g id="svgg"><path id="path0" d="M160.076 33.848 C 27.237 52.612,-33.281 201.932,51.899 300.760 C 104.647 361.961,192.645 377.432,268.013 338.756 C 284.155 330.473,284.247 330.451,291.221 333.218 C 317.796 343.764,363.213 343.630,364.107 333.003 C 364.359 330.008,363.962 329.567,353.064 320.743 C 333.581 304.969,330.488 285.893,342.614 256.287 C 382.209 159.611,319.643 53.251,212.167 34.537 C 202.128 32.789,170.532 32.371,160.076 33.848 M255.287 124.094 C 262.769 129.046,264.406 148.243,257.956 155.376 C 253.836 159.932,257.077 159.741,187.588 159.519 L 124.216 159.316 121.341 157.123 C 113.451 151.104,113.138 130.251,120.855 124.756 C 124.976 121.821,125.902 121.783,189.790 121.920 L 252.203 122.053 255.287 124.094 M212.584 178.293 C 223.307 182.774,224.918 206.212,214.956 212.806 L 211.900 214.829 170.018 215.059 C 115.288 215.360,115.647 215.484,115.606 196.363 C 115.583 185.461,117.378 181.462,123.574 178.617 C 127.740 176.703,208.081 176.412,212.584 178.293 M156.274 234.130 C 162.451 236.966,164.259 240.973,164.259 251.827 C 164.259 267.995,161.173 270.342,139.924 270.342 C 118.675 270.342,115.589 267.995,115.589 251.827 C 115.589 235.371,118.951 232.733,139.924 232.733 C 151.227 232.733,153.690 232.943,156.274 234.130 " stroke="none" fill="#909090" fill-rule="evenodd"></path><path id="path1" d="M125.317 122.416 C 113.872 125.914,111.185 149.375,121.341 157.123 L 124.216 159.316 187.588 159.519 C 257.077 159.741,253.836 159.932,257.956 155.376 C 264.406 148.243,262.769 129.046,255.287 124.094 L 252.203 122.053 189.790 121.920 C 155.462 121.846,126.450 122.070,125.317 122.416 M123.574 178.617 C 117.378 181.462,115.583 185.461,115.606 196.363 C 115.647 215.484,115.288 215.360,170.018 215.059 L 211.900 214.829 214.956 212.806 C 224.918 206.212,223.307 182.774,212.584 178.293 C 208.081 176.412,127.740 176.703,123.574 178.617 M123.574 234.130 C 117.397 236.966,115.589 240.973,115.589 251.827 C 115.589 267.995,118.675 270.342,139.924 270.342 C 161.173 270.342,164.259 267.995,164.259 251.827 C 164.259 235.371,160.896 232.733,139.924 232.733 C 128.621 232.733,126.158 232.943,123.574 234.130 " stroke="none" fill="#ffffff" fill-rule="evenodd"></path></g></svg>